<svg width="166" height="435" viewBox="0 0 166 435" fill="none" xmlns="http://www.w3.org/2000/svg">
<g opacity="0.47" clip-path="url(#clip0_214_278)">
<path fill-rule="evenodd" clip-rule="evenodd" d="M139.021 103.5C140.021 146.5 151.021 179.5 151.021 179.5V189.5C151.021 189.5 165.521 185.5 165.521 202V228V245.5L162.521 257C163.355 260 164.021 267.3 160.021 272.5C157.213 276.151 152.826 278.067 149.166 279.666C146.311 280.912 143.898 281.966 143.021 283.5C142.135 285.051 141.838 286.995 141.521 289.071C141.122 291.679 140.692 294.494 139.021 297C138.087 298.402 137.006 300.582 135.855 302.902L135.854 302.904L135.854 302.905C133.313 308.03 130.43 313.844 128.021 313.5C124.521 313 115.521 319.5 110.021 333C104.521 346.5 86.5215 371 81.0215 378C75.5215 385 28.5215 420 23.5215 423C19.5215 425.4 16.5215 431.667 15.5215 434.5H0.0214844H-15.4785C-16.4785 431.667 -19.4785 425.4 -23.4785 423C-28.4785 420 -75.4785 385 -80.9785 378C-86.4785 371 -104.479 346.5 -109.979 333C-115.479 319.5 -124.479 313 -127.979 313.5C-130.387 313.844 -133.27 308.03 -135.811 302.905L-135.811 302.904C-136.962 300.583 -138.043 298.403 -138.979 297C-140.649 294.494 -141.079 291.679 -141.478 289.071C-141.795 286.995 -142.092 285.051 -142.979 283.5C-143.855 281.966 -146.268 280.912 -149.123 279.666C-152.783 278.067 -157.17 276.151 -159.979 272.5C-163.979 267.3 -163.312 260 -162.479 257L-165.479 245.5V228V202C-165.479 185.5 -150.979 189.5 -150.979 189.5V179.5C-150.979 179.5 -139.979 107 -138.979 63.9999C-137.979 20.9999 -73.9785 -0.500092 0.0214844 -0.5C74.0215 -0.500092 138.021 60.4999 139.021 103.5ZM43.9919 352H57.9016C58.2702 352 58.609 352.203 58.7831 352.528L65.6586 365.362C65.8625 365.743 65.7991 366.211 65.5013 366.524L46.208 386.782C46.0725 386.924 45.9089 387.021 45.7174 387.065C43.4564 387.582 28.2586 391.065 22.6145 392.471C22.5352 392.491 22.459 392.5 22.3772 392.5H0.000305176C-0.551987 392.5 -0.999695 392.052 -0.999695 391.5V348C-0.999695 347.448 -0.551987 347 0.000305176 347H7.50031C8.05258 347 8.50031 347.448 8.50031 348V362.5C8.50031 363.052 8.94803 363.5 9.50031 363.5H20.5003C21.0526 363.5 21.5003 363.948 21.5003 364.5V368.5C21.5003 369.052 21.948 369.5 22.5003 369.5H29.5088C29.8187 369.5 30.1112 369.356 30.3005 369.111L43.2001 352.389C43.3894 352.144 43.6819 352 43.9919 352ZM18.0782 302.715L-0.553436 308.083C-1.4099 308.33 -1.99969 309.114 -1.99969 310.005V319.795C-1.99969 321.479 -0.0443268 322.409 1.26248 321.346L19.8941 306.188C21.5834 304.814 20.1707 302.112 18.0782 302.715ZM76.5003 279C105.219 279 122 258.719 122 230C122 206.486 106.177 186.556 91.7159 181.252C86.583 178.602 76.9723 179.714 66.0009 180.983L66.0003 180.983C60.8589 181.578 55.4185 182.207 50.0002 182.5C31.5002 183.5 22.0004 224.479 22.0004 243.5C22.0004 255 24.6236 264.475 29.0874 270.169C29.2081 271.272 29.8158 272.384 31.0003 273.5C38.489 280.554 53.1527 279.9 66.3732 279.31C69.9068 279.153 73.3374 279 76.5003 279ZM62.5003 252C80.8596 246.526 79.6967 224.738 78.1682 206.539C73.3541 211.089 68.028 215.734 63.0004 220C54.2395 227.433 51.3419 242.76 48.9329 255.503L48.7476 256.483C53.2383 254.846 58.0105 253.339 62.5003 252ZM59.6757 146.362C68.9712 141.839 82.9263 135.048 82.0003 132C82.0003 121.506 65.5003 113 60.0003 113C54.5003 113 41.0003 120 41.0003 132C41.0003 144 47.5003 153 52.5003 150C53.7879 149.227 56.4515 147.931 59.6757 146.362Z" fill="black"/>
</g>
<defs>
<clipPath id="clip0_214_278">
<rect width="166" height="435" fill="white"/>
</clipPath>
</defs>
</svg>
