<svg width="1305" height="126" viewBox="0 0 1305 126" fill="none" xmlns="http://www.w3.org/2000/svg">
<path fill-rule="evenodd" clip-rule="evenodd" d="M118.839 25.0078H0V125.901H118.839C127.912 125.901 135.74 122.901 142.112 116.996C148.483 111.083 151.715 103.819 151.715 95.3992V55.5092C151.715 47.0891 148.483 39.825 142.112 33.9122C135.74 27.9994 127.904 25 118.839 25V25.0078ZM123.325 98.1017C123.325 99.2656 122.912 100.172 121.995 101.046C121.103 101.89 120.126 102.265 118.839 102.265H28.3903V48.6513H118.839C120.135 48.6513 121.111 49.0262 121.995 49.8697C122.912 50.7368 123.325 51.6506 123.325 52.8144V98.1017ZM263.606 25.0079C255.711 25.0079 248.599 27.7495 242.472 33.1546L158.731 110.865L142.512 125.908H168.529H178.452H182.265L183.401 124.862H183.41L264.583 49.9948C265.551 49.1278 266.527 48.745 267.731 48.745H280.348V121.316V121.495V125.908H416.508H432.181V102.265H313.241C311.945 102.265 310.969 101.89 310.076 101.039C309.167 100.172 308.755 99.2656 308.755 98.1018V87.3229H412.763C412.881 87.3229 412.999 87.309 413.116 87.2951L413.173 87.2885C413.19 87.2865 413.207 87.2846 413.225 87.2827C413.24 87.2811 413.255 87.2796 413.27 87.2781L413.293 87.276H417.872V63.6325H413.259C413.227 63.6295 413.195 63.6259 413.163 63.6221L413.135 63.6186L413.09 63.613C412.981 63.5992 412.874 63.5857 412.763 63.5857H308.755V52.8067C308.755 51.6429 309.167 50.729 310.076 49.862C310.969 49.0184 311.945 48.6435 313.241 48.6435H432.181V25.0001C404.085 25.0001 375.989 25.002 347.894 25.004C319.798 25.0059 291.702 25.0079 263.606 25.0079ZM560.476 25.0001C569.541 25.0001 577.377 27.9994 583.749 33.9122V33.92C590.121 39.8329 593.353 47.097 593.353 55.5171V95.4071C593.353 103.827 590.121 111.091 583.749 117.004C577.377 122.909 569.55 125.908 560.476 125.908H455.711H441.638V25.0001H560.476ZM563.633 101.047C564.55 100.172 564.962 99.2656 564.962 98.1018V52.8145C564.962 51.6507 564.55 50.7368 563.633 49.8698C562.749 49.0262 561.772 48.6513 560.476 48.6513H470.028V102.265H560.476C561.764 102.265 562.74 101.89 563.633 101.047ZM910.384 102.266H796.503C795.207 102.266 794.23 101.891 793.338 101.04C792.429 100.173 792.017 99.2667 792.017 98.1029V25.0089H763.626V95.4003C763.626 103.82 766.859 111.084 773.23 116.997C779.602 122.91 787.43 125.902 796.503 125.902H885.748H915.342V102.258H910.384V102.266ZM754.243 55.4155V98.7891V125.901H725.853V95.243H630.817V125.901H602.427V55.4155C602.427 47.0579 605.659 39.825 612.031 33.9122C618.402 27.9994 626.239 25.0001 635.304 25.0001H721.367C730.364 25.0001 738.175 27.9994 744.581 33.9044C750.994 39.8172 754.243 47.0579 754.243 55.4155ZM630.817 52.8067V71.5996H725.853V52.8067C725.853 51.6038 725.449 50.6978 724.54 49.8698C723.606 49.0262 722.621 48.6435 721.367 48.6435H635.304C633.991 48.6435 633.014 49.0184 632.114 49.8464C631.213 50.6743 630.817 51.5882 630.817 52.8067ZM1070.41 25.0089H1047.08V52.1204V98.1029C1047.08 99.3213 1046.69 100.235 1045.79 101.063C1044.88 101.891 1043.91 102.266 1042.6 102.266H956.532C955.278 102.266 954.293 101.883 953.359 101.04C952.45 100.212 952.046 99.3057 952.046 98.1029V25.0089H923.655V95.494C923.655 103.852 926.904 111.092 933.318 117.005C939.723 122.91 947.534 125.902 956.532 125.902H1042.6C1051.67 125.902 1059.5 122.902 1065.87 116.997C1072.24 111.084 1075.47 103.852 1075.47 95.494V25.0089H1070.42H1070.41ZM1203.22 63.5856C1212.23 63.5856 1220.02 66.585 1226.4 72.4978C1232.77 78.4028 1236 85.6669 1236 94.087V95.3914C1236 103.741 1232.77 110.99 1226.4 116.934C1220.03 122.886 1212.23 125.901 1203.22 125.901H1090.01V102.171H1203.22C1204.46 102.171 1205.41 101.796 1206.31 100.968C1207.21 100.14 1207.61 99.25 1207.61 98.1018V91.3923C1207.61 90.2285 1207.21 89.3224 1206.29 88.4554C1205.4 87.604 1204.45 87.2291 1203.22 87.2291H1117.06C1108.05 87.2291 1100.26 84.2297 1093.89 78.3169C1087.52 72.4041 1084.28 65.1713 1084.28 56.8136V55.4155C1084.28 47.0579 1087.52 39.825 1093.89 33.9122C1100.26 27.9994 1108.05 25.0001 1117.06 25.0001H1230.26V29.4913C1230.26 29.5303 1230.27 29.6006 1230.27 29.6006V44.0429C1230.27 44.082 1230.26 44.1523 1230.26 44.1523V48.6435H1117.06C1115.82 48.6435 1114.87 49.0184 1113.97 49.8464C1113.07 50.6743 1112.67 51.5882 1112.67 52.8067V59.4225C1112.67 60.641 1113.08 61.547 1113.97 62.3828C1114.86 63.2185 1115.81 63.5856 1117.06 63.5856H1203.22Z" fill="white"/>
<path fill-rule="evenodd" clip-rule="evenodd" d="M1255 25.0131C1255 11.2206 1266.21 0 1280 0C1293.79 0 1305 11.2206 1305 25.0117C1305 38.109 1294.77 49.0674 1281.72 49.9594L1281.44 49.9914V39.3313H1281.59L1281.68 39.3081C1283.46 39.1004 1285.16 38.5659 1286.75 37.7181L1286.91 37.6316L1289.1 40.7898L1288.9 40.9015C1287.76 41.5423 1286.54 42.0625 1285.27 42.4479V45.5285C1292.85 43.5769 1298.84 37.4512 1300.62 29.8205L1297.67 29.4092C1296.75 33.0931 1294.65 36.4693 1291.73 38.9336L1291.56 39.0807L1289.37 35.9225L1289.51 35.8006C1290.11 35.2728 1290.67 34.6804 1291.19 34.0376L1288.43 32.3639C1286.3 34.8112 1283.24 36.2112 1280 36.2112C1276.15 36.2112 1272.52 34.1792 1270.48 30.8957L1267.48 32.1003C1268.09 33.1728 1268.83 34.1602 1269.68 35.0372L1269.81 35.1693L1267.39 38.1478L1267.23 37.9878C1263.72 34.5306 1261.79 29.9227 1261.79 25.0131C1261.79 14.9658 1269.96 6.79104 1280 6.79104C1280.31 6.79104 1280.61 6.80126 1280.91 6.81624L1281.14 6.82781L1280.59 10.6363L1280.4 10.6316C1280.36 10.6305 1280.31 10.6283 1280.27 10.6261C1280.26 10.6254 1280.24 10.6247 1280.23 10.6241C1280.15 10.62 1280.08 10.6159 1280 10.6159C1272.06 10.6159 1265.61 17.0746 1265.61 25.0138C1265.61 26.2047 1265.76 27.3943 1266.05 28.554L1269.05 27.3487C1268.89 26.5758 1268.81 25.8064 1268.81 25.0138C1268.81 24.2211 1268.89 23.4217 1269.06 22.6386L1269.11 22.4017L1272.74 23.8051L1272.71 23.9685C1272.66 24.3641 1272.63 24.6964 1272.63 25.0138C1272.63 29.0797 1275.94 32.3877 1280 32.3877C1284.06 32.3877 1287.37 29.0797 1287.37 25.0138C1287.37 20.9478 1284.06 17.6398 1280 17.6398C1277.56 17.6398 1275.28 18.8485 1273.91 20.8736L1273.81 21.0098L1270.2 19.6091L1270.32 19.3994C1272.33 15.9552 1276.03 13.8156 1280 13.8156C1286.17 13.8156 1291.19 18.839 1291.19 25.0138C1291.19 26.4192 1290.93 27.792 1290.42 29.0967L1293.18 30.7739C1293.98 28.9537 1294.39 27.0171 1294.39 25.0138C1294.39 24.3723 1294.34 23.7057 1294.25 23.0329L1294.23 22.8511L1297.94 21.8814L1297.98 22.1061C1298.13 23.0744 1298.21 24.0529 1298.21 25.0138C1298.21 25.218 1298.21 25.4203 1298.2 25.6225L1301.15 26.0338C1301.17 25.6627 1301.18 25.327 1301.18 25.0138C1301.18 20.0762 1299.44 15.279 1296.27 11.4773L1294.16 13.5807C1295.44 15.1571 1296.43 16.9017 1297.11 18.7675L1297.19 18.9813L1293.47 19.9516L1293.4 19.78C1291.74 15.5378 1288.12 12.2985 1283.73 11.1157L1283.55 11.068L1284.1 7.25749L1284.33 7.31128C1286.91 7.9432 1289.37 9.17298 1291.46 10.8726L1293.57 8.76918C1289.77 5.57896 1284.96 3.82486 1280 3.82486C1268.32 3.82486 1258.82 13.3295 1258.82 25.0138C1258.82 34.7574 1265.38 43.1629 1274.81 45.5455V42.4752C1273.07 41.9549 1271.42 41.178 1269.9 40.1647L1269.71 40.0381L1272.13 37.0603L1272.29 37.1597C1274.13 38.3337 1276.16 39.0568 1278.32 39.3095L1278.63 39.3326V49.9975L1278.5 49.9628V49.9758L1278.28 49.9608C1265.23 49.0687 1255 38.8056 1255 25.0131ZM1280 20.5311C1282.47 20.5311 1284.48 22.5419 1284.48 25.013C1284.48 27.4842 1282.47 29.495 1280 29.495C1277.53 29.495 1275.52 27.4842 1275.52 25.013C1275.52 22.5419 1277.53 20.5311 1280 20.5311Z" fill="white"/>
</svg>
