<svg width="1428" height="117" viewBox="0 0 1428 117" fill="none" xmlns="http://www.w3.org/2000/svg">
<path fill-rule="evenodd" clip-rule="evenodd" d="M1390.14 44.5673C1400.55 44.5673 1409.55 48.0317 1416.91 54.8611C1424.27 61.6816 1428 70.0718 1428 79.7972V81.3038C1428 90.948 1424.27 99.3202 1416.92 106.186C1409.56 113.06 1400.55 116.543 1390.14 116.543H1259.38V89.1347H1390.14C1391.57 89.1347 1392.67 88.7016 1393.71 87.7453C1394.75 86.789 1395.21 85.7605 1395.21 84.4343V76.6847C1395.21 75.3405 1394.74 74.2939 1393.68 73.2925C1392.65 72.3092 1391.56 71.8761 1390.14 71.8761H1290.62C1280.22 71.8761 1271.22 68.4118 1263.86 61.5823C1256.5 54.7529 1252.77 46.3988 1252.77 36.7455V35.1306C1252.77 25.4774 1256.5 17.1232 1263.86 10.2938C1271.22 3.46435 1280.22 0 1290.62 0H1421.37V5.18749C1421.37 5.2326 1421.38 5.3138 1421.38 5.3138V21.995C1421.38 22.0401 1421.37 22.1213 1421.37 22.1213V27.3088H1290.62C1289.19 27.3088 1288.09 27.7418 1287.05 28.6981C1286.01 29.6544 1285.56 30.71 1285.56 32.1174V39.7588C1285.56 41.1661 1286.02 42.2127 1287.05 43.178C1288.08 44.1433 1289.18 44.5673 1290.62 44.5673H1390.14ZM137.65 0.00908162H0.388672V116.543H137.65C148.13 116.543 157.172 113.078 164.531 106.258C171.89 99.4285 175.624 91.0383 175.624 81.3129V35.2389C175.624 25.5135 171.89 17.1233 164.531 10.2939C157.172 3.4644 148.121 5.79621e-05 137.65 5.79621e-05V0.00908162ZM142.832 84.4344C142.832 85.7786 142.356 86.8252 141.296 87.8356C140.266 88.81 139.138 89.243 137.65 89.243H33.1802V27.3178H137.65C139.147 27.3178 140.275 27.7509 141.296 28.7252C142.356 29.7267 142.832 30.7822 142.832 32.1264V84.4344ZM304.861 0.00908162C295.742 0.00908162 287.527 3.17571 280.45 9.41875L183.728 99.176L164.994 116.552H195.044H206.506H210.91L212.223 115.343H212.232L305.989 28.8696C307.107 27.8682 308.235 27.4261 309.625 27.4261H324.198V111.247V111.455V116.552H481.467H499.569V89.243H362.191C360.693 89.243 359.566 88.81 358.535 87.8266C357.485 86.8252 357.009 85.7787 357.009 84.4344V71.9845H477.141C477.277 71.9845 477.413 71.9684 477.549 71.9524C477.593 71.9472 477.637 71.942 477.681 71.9374L477.724 71.9331L477.753 71.9303H483.042V44.6215H477.714C477.648 44.6154 477.583 44.6072 477.518 44.599C477.393 44.5831 477.269 44.5674 477.141 44.5674H357.009V32.1174C357.009 30.7732 357.485 29.7176 358.535 28.7162C359.566 27.7419 360.693 27.3088 362.191 27.3088H499.569V5.79621e-05C467.118 5.79621e-05 434.666 0.00231388 402.215 0.00456979C369.764 0.00682571 337.313 0.00908162 304.861 0.00908162ZM647.752 5.79621e-05C658.222 5.79621e-05 667.273 3.46441 674.633 10.2939V10.3029C681.992 17.1323 685.725 25.5225 685.725 35.248V81.322C685.725 91.0474 681.992 99.4376 674.633 106.267C667.273 113.087 658.232 116.552 647.752 116.552H526.745H510.49V5.79621e-05H647.752ZM651.398 87.8356C652.457 86.8252 652.934 85.7787 652.934 84.4344V32.1264C652.934 30.7822 652.457 29.7267 651.398 28.7253C650.377 27.7509 649.249 27.3179 647.752 27.3179H543.282V89.243H647.752C649.239 89.243 650.367 88.81 651.398 87.8356ZM1051.91 89.2439H920.37C918.873 89.2439 917.745 88.8108 916.714 87.8275C915.664 86.826 915.188 85.7795 915.188 84.4353V0.00994566H882.396V81.3138C882.396 91.0392 886.13 99.4294 893.489 106.259C900.848 113.088 909.89 116.544 920.37 116.544H1023.45H1057.63V89.2348H1051.91V89.2439ZM871.56 35.1307V85.2283V116.543H838.768V81.1325H729V116.543H696.208V35.1307C696.208 25.4774 699.941 17.1233 707.301 10.2939C714.66 3.4644 723.711 5.79621e-05 734.181 5.79621e-05H833.586C843.979 5.79621e-05 853.001 3.4644 860.399 10.2848C867.807 17.1143 871.56 25.4774 871.56 35.1307ZM729 32.1174V53.8237H838.768V32.1174C838.768 30.7281 838.301 29.6815 837.251 28.7252C836.172 27.7509 835.035 27.3088 833.586 27.3088H734.181C732.665 27.3088 731.537 27.7419 730.497 28.6982C729.456 29.6545 729 30.71 729 32.1174ZM1236.74 0.00999847H1209.79V31.3244V84.4353C1209.79 85.8427 1209.34 86.8983 1208.3 87.8546C1207.26 88.8109 1206.13 89.2439 1204.61 89.2439H1105.21C1103.76 89.2439 1102.62 88.8019 1101.54 87.8275C1100.49 86.8712 1100.03 85.8247 1100.03 84.4353V0.00999847H1067.23V81.4221C1067.23 91.0753 1070.99 99.4385 1078.4 106.268C1085.79 113.088 1094.82 116.544 1105.21 116.544H1204.61C1215.09 116.544 1224.13 113.079 1231.49 106.259C1238.85 99.4295 1242.59 91.0753 1242.59 81.4221V0.00999847H1236.75H1236.74Z" fill="white"/>
</svg>
