<svg width="1649" height="1648" viewBox="0 0 1649 1648" fill="none" xmlns="http://www.w3.org/2000/svg">
<g opacity="0.08">
<mask id="path-1-inside-1_214_31" fill="white">
<path fill-rule="evenodd" clip-rule="evenodd" d="M0 824.471C0 369.848 369.876 0 824.556 0C1279.21 0 1649.09 369.848 1649 824.427C1649 1256.13 1311.72 1617.34 881.122 1646.74L872.166 1647.8L872.166 1296.42H876.857L879.887 1295.66C938.54 1288.81 994.837 1271.19 1047.2 1243.25L1052.57 1240.4L1124.69 1344.5L1118.16 1348.18C1080.61 1369.3 1040.29 1386.45 998.271 1399.15L998.271 1500.69C1248.44 1436.37 1445.95 1234.45 1504.62 982.933L1407.36 969.376C1377.1 1090.8 1307.72 1202.09 1211.49 1283.31L1205.75 1288.16L1133.65 1184.06L1138.2 1180.04C1157.93 1162.65 1176.56 1143.12 1193.65 1121.93L1102.65 1066.76C1032.3 1147.43 931.245 1193.58 824.489 1193.58C697.418 1193.58 577.688 1126.6 510.572 1018.37L411.672 1058.08C431.762 1093.43 456.184 1125.97 484.287 1154.88L488.529 1159.24L408.664 1257.41L403.322 1252.14C287.564 1138.18 223.838 986.3 223.838 824.471C223.838 493.296 493.288 223.844 824.511 223.844C834.635 223.844 844.691 224.18 854.68 224.674L862.177 225.056L843.838 350.591L837.777 350.433C836.345 350.399 834.912 350.326 833.49 350.254C833.04 350.231 832.591 350.208 832.143 350.187C829.629 350.052 827.093 349.917 824.511 349.917C562.806 349.917 349.899 562.808 349.899 824.494C349.899 863.75 354.815 902.961 364.556 941.185L463.546 901.458C458.114 875.983 455.376 850.62 455.376 824.494C455.376 798.368 458.204 772.017 463.816 746.206L465.499 738.395L584.96 784.654L584.197 790.041C582.334 803.081 581.459 814.035 581.459 824.494C581.459 958.513 690.505 1067.55 824.534 1067.55C958.563 1067.55 1067.61 958.513 1067.61 824.494C1067.61 690.475 958.563 581.437 824.534 581.437C744.13 581.437 669.001 621.277 623.524 688.028L620.471 692.517L501.302 646.348L505.342 639.435C571.425 525.908 693.737 455.386 824.534 455.386C1028.08 455.386 1193.67 620.963 1193.67 824.494C1193.67 870.82 1185.12 916.069 1168.19 959.074L1259.39 1014.36C1285.77 954.361 1299.15 890.527 1299.15 824.494C1299.15 803.351 1297.62 781.377 1294.57 759.201L1293.74 753.209L1416.3 721.247L1417.49 728.654C1422.6 760.571 1425.21 792.824 1425.21 824.494C1425.21 831.227 1425 837.894 1424.74 844.56L1522.09 858.116C1522.69 845.884 1523.01 834.819 1523.01 824.494C1523.01 661.745 1465.63 503.62 1361.28 378.31L1291.58 447.643C1333.62 499.603 1366.33 557.107 1388.84 618.606L1391.42 625.654L1268.75 657.638L1266.53 651.982C1211.76 512.15 1092.48 405.379 947.429 366.392L941.571 364.821L959.91 239.219L967.205 240.992C1052.34 261.821 1133.6 302.356 1202.56 358.379L1272.26 289.046C1146.69 183.892 987.99 126.073 824.556 126.073C439.416 126.073 126.061 439.36 126.105 824.494C126.105 1145.66 342.402 1422.72 653.221 1501.25L653.221 1400.05C595.847 1382.9 541.504 1357.29 491.56 1323.89L485.32 1319.72L565.14 1221.57L570.28 1224.84C631.021 1263.54 697.934 1287.38 769.135 1295.7L779.259 1296.47L779.259 1648L775.173 1646.86V1647.28L767.878 1646.79C337.284 1617.39 0 1279.09 0 824.471ZM824.558 676.738C906.017 676.738 972.28 743.018 972.28 824.47C972.28 905.923 906.04 972.203 824.558 972.203C743.077 972.203 676.814 905.923 676.814 824.47C676.814 743.018 743.099 676.738 824.558 676.738Z"/>
</mask>
<path d="M1649 824.427L1644.86 824.426V824.427H1649ZM881.122 1646.74L880.84 1642.61L880.738 1642.62L880.637 1642.63L881.122 1646.74ZM872.166 1647.8H868.024V1652.46L872.65 1651.91L872.166 1647.8ZM872.166 1296.42V1292.28H868.024V1296.42H872.166ZM876.857 1296.42V1300.56H877.37L877.868 1300.44L876.857 1296.42ZM879.887 1295.66L879.407 1291.55L879.138 1291.58L878.876 1291.64L879.887 1295.66ZM1047.2 1243.25L1045.26 1239.59L1045.25 1239.6L1047.2 1243.25ZM1052.57 1240.4L1055.97 1238.04L1053.88 1235.01L1050.63 1236.74L1052.57 1240.4ZM1124.69 1344.5L1126.72 1348.11L1130.68 1345.88L1128.09 1342.14L1124.69 1344.5ZM1118.16 1348.18L1120.19 1351.79L1120.19 1351.79L1118.16 1348.18ZM998.271 1399.15L997.072 1395.19L994.129 1396.08V1399.15H998.271ZM998.271 1500.69H994.129V1506.03L999.302 1504.7L998.271 1500.69ZM1504.62 982.933L1508.66 983.874L1509.69 979.457L1505.19 978.831L1504.62 982.933ZM1407.36 969.376L1407.93 965.274L1404.24 964.76L1403.34 968.375L1407.36 969.376ZM1211.49 1283.31L1214.16 1286.48L1214.16 1286.48L1211.49 1283.31ZM1205.75 1288.16L1202.34 1290.52L1204.93 1294.27L1208.42 1291.33L1205.75 1288.16ZM1133.65 1184.06L1130.91 1180.96L1128.14 1183.39L1130.24 1186.42L1133.65 1184.06ZM1138.2 1180.04L1135.46 1176.94L1135.46 1176.94L1138.2 1180.04ZM1193.65 1121.93L1196.87 1124.53L1199.84 1120.85L1195.79 1118.39L1193.65 1121.93ZM1102.65 1066.76L1104.8 1063.22L1101.82 1061.42L1099.53 1064.04L1102.65 1066.76ZM510.572 1018.37L514.092 1016.19L512.258 1013.23L509.029 1014.53L510.572 1018.37ZM411.672 1058.08L410.129 1054.24L405.728 1056L408.071 1060.13L411.672 1058.08ZM484.287 1154.88L481.317 1157.77L481.321 1157.77L484.287 1154.88ZM488.529 1159.24L491.742 1161.85L494.07 1158.99L491.496 1156.35L488.529 1159.24ZM408.664 1257.41L405.754 1260.36L408.999 1263.56L411.877 1260.03L408.664 1257.41ZM403.322 1252.14L406.232 1249.19L406.227 1249.19L403.322 1252.14ZM854.68 224.674L854.89 220.538L854.884 220.538L854.68 224.674ZM862.177 225.056L866.275 225.654L866.933 221.151L862.387 220.92L862.177 225.056ZM843.838 350.591L843.73 354.731L847.405 354.826L847.936 351.189L843.838 350.591ZM837.777 350.433L837.885 346.293L837.876 346.293L837.777 350.433ZM833.49 350.254L833.279 354.39L833.279 354.39L833.49 350.254ZM832.143 350.187L831.922 354.322L831.933 354.323L831.944 354.323L832.143 350.187ZM364.556 941.185L360.543 942.208L361.711 946.79L366.099 945.029L364.556 941.185ZM463.546 901.458L465.089 905.301L468.324 904.003L467.597 900.594L463.546 901.458ZM463.816 746.206L467.863 747.086L467.864 747.078L463.816 746.206ZM465.499 738.395L466.995 734.533L462.472 732.782L461.451 737.522L465.499 738.395ZM584.96 784.654L589.061 785.235L589.522 781.979L586.456 780.792L584.96 784.654ZM584.197 790.041L588.297 790.627L588.298 790.622L584.197 790.041ZM623.524 688.028L620.101 685.697L620.099 685.699L623.524 688.028ZM620.471 692.517L618.975 696.379L622.044 697.569L623.896 694.846L620.471 692.517ZM501.302 646.348L497.726 644.258L495.274 648.454L499.805 650.21L501.302 646.348ZM505.342 639.435L508.918 641.525L508.921 641.519L505.342 639.435ZM1168.19 959.074L1164.34 957.557L1163.06 960.806L1166.05 962.616L1168.19 959.074ZM1259.39 1014.36L1257.25 1017.9L1261.28 1020.35L1263.18 1016.02L1259.39 1014.36ZM1294.57 759.201L1298.67 758.637L1298.67 758.633L1294.57 759.201ZM1293.74 753.209L1292.69 749.201L1289.13 750.13L1289.63 753.777L1293.74 753.209ZM1416.3 721.247L1420.38 720.59L1419.66 716.089L1415.25 717.239L1416.3 721.247ZM1417.49 728.654L1421.57 727.998L1421.57 727.997L1417.49 728.654ZM1424.74 844.56L1420.6 844.392L1420.45 848.144L1424.16 848.662L1424.74 844.56ZM1522.09 858.116L1521.52 862.218L1526 862.843L1526.22 858.321L1522.09 858.116ZM1361.28 378.31L1364.46 375.66L1361.57 372.183L1358.36 375.374L1361.28 378.31ZM1291.58 447.643L1288.66 444.706L1286.01 447.342L1288.36 450.248L1291.58 447.643ZM1388.84 618.606L1384.95 620.03L1384.95 620.03L1388.84 618.606ZM1391.42 625.654L1392.47 629.661L1396.88 628.511L1395.31 624.229L1391.42 625.654ZM1268.75 657.638L1264.9 659.152L1266.24 662.573L1269.8 661.645L1268.75 657.638ZM1266.53 651.982L1262.67 653.492L1262.68 653.496L1266.53 651.982ZM947.429 366.392L948.504 362.392L948.502 362.392L947.429 366.392ZM941.571 364.821L937.473 364.222L936.94 367.867L940.498 368.821L941.571 364.821ZM959.91 239.219L960.888 235.194L956.469 234.12L955.811 238.62L959.91 239.219ZM967.205 240.992L968.189 236.969L968.183 236.967L967.205 240.992ZM1202.56 358.379L1199.95 361.593L1202.84 363.942L1205.48 361.315L1202.56 358.379ZM1272.26 289.046L1275.18 291.983L1278.39 288.784L1274.91 285.871L1272.26 289.046ZM126.105 824.494L130.247 824.494L130.247 824.493L126.105 824.494ZM653.221 1501.25L652.206 1505.27L657.362 1506.57V1501.25H653.221ZM653.221 1400.05H657.362V1396.97L654.407 1396.08L653.221 1400.05ZM491.56 1323.89L489.257 1327.34L489.258 1327.34L491.56 1323.89ZM485.32 1319.72L482.106 1317.11L479.238 1320.63L483.017 1323.16L485.32 1319.72ZM565.14 1221.57L567.366 1218.08L564.255 1216.09L561.927 1218.95L565.14 1221.57ZM570.28 1224.84L568.054 1228.34L568.055 1228.34L570.28 1224.84ZM769.135 1295.7L768.654 1299.82L768.739 1299.83L768.824 1299.83L769.135 1295.7ZM779.259 1296.47H783.4V1292.63L779.57 1292.34L779.259 1296.47ZM779.259 1648L778.141 1651.99L783.4 1653.46V1648H779.259ZM775.173 1646.86L776.291 1642.87L771.032 1641.39V1646.86H775.173ZM775.173 1647.28L774.894 1651.41L779.315 1651.71V1647.28H775.173ZM767.878 1646.79L767.596 1650.92L767.599 1650.92L767.878 1646.79ZM824.556 -4.14156C367.589 -4.14156 -4.14156 367.561 -4.14156 824.471H4.14156C4.14156 372.136 372.163 4.14156 824.556 4.14156V-4.14156ZM1653.14 824.427C1653.23 367.561 1281.5 -4.14156 824.556 -4.14156V4.14156C1276.93 4.14156 1644.95 372.136 1644.86 824.426L1653.14 824.427ZM881.404 1650.88C1314.17 1621.32 1653.14 1258.31 1653.14 824.427H1644.86C1644.86 1253.96 1309.26 1613.36 880.84 1642.61L881.404 1650.88ZM872.65 1651.91L881.606 1650.86L880.637 1642.63L871.681 1643.69L872.65 1651.91ZM868.024 1296.42L868.024 1647.8H876.307L876.307 1296.42H868.024ZM876.857 1292.28H872.166V1300.56H876.857V1292.28ZM878.876 1291.64L875.846 1292.41L877.868 1300.44L880.898 1299.68L878.876 1291.64ZM1045.25 1239.6C993.342 1267.3 937.544 1284.76 879.407 1291.55L880.367 1299.77C939.536 1292.87 996.331 1275.09 1049.15 1246.9L1045.25 1239.6ZM1050.63 1236.74L1045.26 1239.59L1049.15 1246.91L1054.51 1244.06L1050.63 1236.74ZM1128.09 1342.14L1055.97 1238.04L1049.17 1242.76L1121.29 1346.86L1128.09 1342.14ZM1120.19 1351.79L1126.72 1348.11L1122.66 1340.89L1116.13 1344.57L1120.19 1351.79ZM999.47 1403.12C1041.77 1390.33 1082.37 1373.06 1120.19 1351.79L1116.13 1344.57C1078.84 1365.54 1038.81 1382.57 997.072 1395.19L999.47 1403.12ZM1002.41 1500.69L1002.41 1399.15H994.129L994.129 1500.69H1002.41ZM1500.59 981.992C1442.26 1232.01 1245.91 1432.74 997.24 1496.68L999.302 1504.7C1250.96 1439.99 1449.63 1236.9 1508.66 983.874L1500.59 981.992ZM1406.79 973.478L1504.05 987.035L1505.19 978.831L1407.93 965.274L1406.79 973.478ZM1214.16 1286.48C1311.05 1204.69 1380.91 1092.65 1411.38 970.378L1403.34 968.375C1373.3 1088.95 1304.39 1199.48 1208.82 1280.15L1214.16 1286.48ZM1208.42 1291.33L1214.16 1286.48L1208.82 1280.15L1203.07 1285L1208.42 1291.33ZM1130.24 1186.42L1202.34 1290.52L1209.15 1285.8L1137.05 1181.7L1130.24 1186.42ZM1135.46 1176.94L1130.91 1180.96L1136.39 1187.17L1140.94 1183.15L1135.46 1176.94ZM1190.42 1119.34C1173.48 1140.35 1155.01 1159.7 1135.46 1176.94L1140.94 1183.15C1160.85 1165.6 1179.65 1145.9 1196.87 1124.53L1190.42 1119.34ZM1100.5 1070.31L1191.5 1125.48L1195.79 1118.39L1104.8 1063.22L1100.5 1070.31ZM824.489 1197.72C932.449 1197.72 1034.64 1151.05 1105.77 1069.49L1099.53 1064.04C1029.96 1143.81 930.042 1189.44 824.489 1189.44V1197.72ZM507.052 1020.56C574.918 1130 695.976 1197.72 824.489 1197.72V1189.44C698.861 1189.44 580.457 1123.21 514.092 1016.19L507.052 1020.56ZM413.215 1061.92L512.115 1022.22L509.029 1014.53L410.129 1054.24L413.215 1061.92ZM487.257 1152C459.4 1123.34 435.19 1091.08 415.273 1056.03L408.071 1060.13C428.334 1095.78 452.967 1128.61 481.317 1157.77L487.257 1152ZM491.496 1156.35L487.253 1151.99L481.321 1157.77L485.563 1162.13L491.496 1156.35ZM411.877 1260.03L491.742 1161.85L485.317 1156.62L405.451 1254.8L411.877 1260.03ZM400.412 1255.09L405.754 1260.36L411.574 1254.47L406.232 1249.19L400.412 1255.09ZM219.697 824.471C219.697 987.414 283.871 1140.36 400.416 1255.09L406.227 1249.19C291.258 1136.01 227.98 985.186 227.98 824.471H219.697ZM824.511 219.702C491.001 219.702 219.697 491.008 219.697 824.471H227.98C227.98 495.583 495.575 227.985 824.511 227.985V219.702ZM854.884 220.538C844.853 220.042 834.725 219.702 824.511 219.702V227.985C834.545 227.985 844.529 228.319 854.475 228.811L854.884 220.538ZM862.387 220.92L854.89 220.538L854.469 228.81L861.966 229.192L862.387 220.92ZM847.936 351.189L866.275 225.654L858.079 224.457L839.74 349.992L847.936 351.189ZM837.67 354.574L843.73 354.731L843.945 346.45L837.885 346.293L837.67 354.574ZM833.279 354.39C834.692 354.462 836.181 354.538 837.679 354.574L837.876 346.293C836.509 346.261 835.132 346.191 833.7 346.118L833.279 354.39ZM831.944 354.323C832.385 354.345 832.828 354.367 833.279 354.39L833.7 346.118C833.251 346.095 832.797 346.072 832.342 346.05L831.944 354.323ZM824.511 354.059C826.964 354.059 829.393 354.187 831.922 354.322L832.365 346.051C829.866 345.917 827.221 345.776 824.511 345.776V354.059ZM354.04 824.494C354.04 565.095 565.093 354.059 824.511 354.059V345.776C560.518 345.776 345.757 560.52 345.757 824.494H354.04ZM368.57 940.162C358.913 902.272 354.04 863.404 354.04 824.494H345.757C345.757 864.096 350.716 903.651 360.543 942.208L368.57 940.162ZM462.004 897.614L363.014 937.342L366.099 945.029L465.089 905.301L462.004 897.614ZM451.234 824.494C451.234 850.917 454.004 876.569 459.496 902.321L467.597 900.594C462.224 875.397 459.517 850.323 459.517 824.494H451.234ZM459.769 745.326C454.094 771.425 451.234 798.071 451.234 824.494H459.517C459.517 798.665 462.314 772.61 467.863 747.086L459.769 745.326ZM461.451 737.522L459.767 745.333L467.864 747.078L469.548 739.268L461.451 737.522ZM586.456 780.792L466.995 734.533L464.004 742.257L583.465 788.516L586.456 780.792ZM588.298 790.622L589.061 785.235L580.86 784.073L580.097 789.46L588.298 790.622ZM585.6 824.494C585.6 814.275 586.455 803.522 588.297 790.627L580.097 789.455C578.213 802.64 577.317 813.794 577.317 824.494H585.6ZM824.534 1063.41C692.792 1063.41 585.6 956.225 585.6 824.494H577.317C577.317 960.8 688.218 1071.69 824.534 1071.69V1063.41ZM1063.47 824.494C1063.47 956.225 956.276 1063.41 824.534 1063.41V1071.69C960.85 1071.69 1071.75 960.8 1071.75 824.494H1063.47ZM824.534 585.579C956.276 585.579 1063.47 692.762 1063.47 824.494H1071.75C1071.75 688.187 960.85 577.296 824.534 577.296V585.579ZM626.946 690.36C671.656 624.735 745.507 585.579 824.534 585.579V577.296C742.752 577.296 666.345 617.819 620.101 685.697L626.946 690.36ZM623.896 694.846L626.948 690.357L620.099 685.699L617.046 690.188L623.896 694.846ZM499.805 650.21L618.975 696.379L621.967 688.656L502.798 642.486L499.805 650.21ZM501.766 637.345L497.726 644.258L504.877 648.438L508.918 641.525L501.766 637.345ZM824.534 451.245C692.255 451.245 568.584 522.557 501.763 637.352L508.921 641.519C574.267 529.259 695.219 459.528 824.534 459.528V451.245ZM1197.81 824.494C1197.81 618.675 1030.37 451.245 824.534 451.245V459.528C1025.79 459.528 1189.53 623.25 1189.53 824.494H1197.81ZM1172.05 960.591C1189.16 917.101 1197.81 871.337 1197.81 824.494H1189.53C1189.53 870.304 1181.07 915.038 1164.34 957.557L1172.05 960.591ZM1261.54 1010.81L1170.34 955.532L1166.05 962.616L1257.25 1017.9L1261.54 1010.81ZM1295 824.494C1295 889.957 1281.74 953.222 1255.6 1012.69L1263.18 1016.02C1289.79 955.499 1303.29 891.097 1303.29 824.494H1295ZM1290.46 759.766C1293.49 781.763 1295 803.548 1295 824.494H1303.29C1303.29 803.154 1301.75 780.991 1298.67 758.637L1290.46 759.766ZM1289.63 753.777L1290.46 759.77L1298.67 758.633L1297.84 752.64L1289.63 753.777ZM1415.25 717.239L1292.69 749.201L1294.78 757.216L1417.34 725.254L1415.25 717.239ZM1421.57 727.997L1420.38 720.59L1412.21 721.904L1413.4 729.311L1421.57 727.997ZM1429.35 824.494C1429.35 792.599 1426.73 760.127 1421.57 727.998L1413.4 729.31C1418.48 761.015 1421.07 793.049 1421.07 824.494H1429.35ZM1428.87 844.727C1429.14 838.036 1429.35 831.307 1429.35 824.494H1421.07C1421.07 831.147 1420.87 837.751 1420.6 844.392L1428.87 844.727ZM1522.66 854.014L1425.31 840.458L1424.16 848.662L1521.52 862.218L1522.66 854.014ZM1518.87 824.494C1518.87 834.735 1518.55 845.731 1517.95 857.911L1526.22 858.321C1526.83 846.037 1527.15 834.902 1527.15 824.494H1518.87ZM1358.1 380.96C1461.83 505.529 1518.87 662.717 1518.87 824.494H1527.15C1527.15 660.773 1469.43 501.711 1364.46 375.66L1358.1 380.96ZM1294.5 450.579L1364.2 381.246L1358.36 375.374L1288.66 444.706L1294.5 450.579ZM1392.73 617.182C1370.06 555.247 1337.12 497.345 1294.8 445.038L1288.36 450.248C1330.12 501.861 1362.6 558.967 1384.95 620.03L1392.73 617.182ZM1395.31 624.229L1392.73 617.182L1384.95 620.03L1387.54 627.078L1395.31 624.229ZM1269.8 661.645L1392.47 629.661L1390.38 621.646L1267.71 653.63L1269.8 661.645ZM1262.68 653.496L1264.9 659.152L1272.61 656.123L1270.39 650.467L1262.68 653.496ZM946.354 370.391C1090.13 409.037 1208.38 514.884 1262.67 653.492L1270.39 650.471C1215.14 509.415 1094.82 401.72 948.504 362.392L946.354 370.391ZM940.498 368.821L946.356 370.392L948.502 362.392L942.643 360.82L940.498 368.821ZM955.811 238.62L937.473 364.222L945.669 365.419L964.008 239.817L955.811 238.62ZM968.183 236.967L960.888 235.194L958.931 243.243L966.227 245.016L968.183 236.967ZM1205.17 355.165C1135.74 298.761 1053.93 257.946 968.189 236.969L966.221 245.015C1050.76 265.696 1131.46 305.952 1199.95 361.593L1205.17 355.165ZM1269.33 286.11L1199.64 355.443L1205.48 361.315L1275.18 291.983L1269.33 286.11ZM824.556 130.215C987.014 130.215 1144.77 187.689 1269.6 292.222L1274.91 285.871C1148.6 180.095 988.966 121.932 824.556 121.932V130.215ZM130.247 824.493C130.202 441.648 441.703 130.215 824.556 130.215V121.932C437.129 121.932 121.919 437.073 121.964 824.494L130.247 824.493ZM654.235 1497.24C345.252 1419.17 130.247 1143.76 130.247 824.494H121.964C121.964 1147.56 339.551 1426.27 652.206 1505.27L654.235 1497.24ZM649.079 1400.05L649.079 1501.25H657.362L657.362 1400.05H649.079ZM489.258 1327.34C539.543 1360.96 594.263 1386.75 652.035 1404.02L654.407 1396.08C597.431 1379.05 543.464 1353.62 493.862 1320.45L489.258 1327.34ZM483.017 1323.16L489.257 1327.34L493.863 1320.45L487.623 1316.28L483.017 1323.16ZM561.927 1218.95L482.106 1317.11L488.533 1322.33L568.353 1224.18L561.927 1218.95ZM572.507 1221.35L567.366 1218.08L562.914 1225.06L568.054 1228.34L572.507 1221.35ZM769.616 1291.59C699.039 1283.34 632.721 1259.71 572.505 1221.35L568.055 1228.34C629.321 1267.37 696.83 1291.42 768.654 1299.82L769.616 1291.59ZM779.57 1292.34L769.446 1291.57L768.824 1299.83L778.947 1300.6L779.57 1292.34ZM783.4 1648L783.4 1296.47H775.117L775.117 1648H783.4ZM774.056 1650.84L778.141 1651.99L780.376 1644.01L776.291 1642.87L774.056 1650.84ZM779.315 1647.28V1646.86H771.032V1647.28H779.315ZM767.599 1650.92L774.894 1651.41L775.453 1643.15L768.158 1642.66L767.599 1650.92ZM-4.14156 824.471C-4.14156 1281.34 334.902 1621.37 767.596 1650.92L768.16 1642.66C339.666 1613.4 4.14156 1276.84 4.14156 824.471H-4.14156ZM976.422 824.47C976.422 740.731 908.305 672.596 824.558 672.596V680.879C903.73 680.879 968.138 745.304 968.138 824.47H976.422ZM824.558 976.345C908.328 976.345 976.422 908.21 976.422 824.47H968.138C968.138 903.637 903.752 968.062 824.558 968.062V976.345ZM672.673 824.47C672.673 908.21 740.79 976.345 824.558 976.345V968.062C745.364 968.062 680.956 903.636 680.956 824.47H672.673ZM824.558 672.596C740.812 672.596 672.673 740.73 672.673 824.47H680.956C680.956 745.305 745.386 680.879 824.558 680.879V672.596Z" fill="#676767" mask="url(#path-1-inside-1_214_31)"/>
</g>
</svg>
